# xmcd
# 
# Track frame offsets:
#     150
#     19375
#     34842
#     50140
#     66860
#     82705
#     103595
#     139497
#     153367
#     169270
# 
# Disc length: 2465
# 
# Revision: 9
# Processed by: cddbd v1.5.2PL0 Copyright (c) Steve Scherf et al.
# Submitted via: fre:ac v1.0.17
# 
DISCID=86099f0a
DTITLE=Eric Clapton - Backless
DYEAR=1978
DGENRE=Blues Rock
TTITLE0=Walk Out In The Rain
TTITLE1=Watch Out For Lucy
TTITLE2=I'll Make Love To You Anytime
TTITLE3=Roll It
TTITLE4=Tell Me That You Love Me
TTITLE5=If I Don't Be There By Morning
TTITLE6=Early In The Morning
TTITLE7=Promises
TTITLE8=Golden Ring
TTITLE9=Tulsa Time
EXTD=YEAR: 1978
EXTT0=
EXTT1=
EXTT2=
EXTT3=
EXTT4=
EXTT5=
EXTT6=
EXTT7=
EXTT8=
EXTT9=
PLAYORDER=
